<svg xmlns="http://www.w3.org/2000/svg" width="1746" height="402" viewBox="0 0 1746 402" fill="none"><circle cx="1228" cy="11" r="11" fill="#FFCA45"></circle><path d="M980.644 98.6084L980.916 113.226C980.966 115.92 978.081 117.658 975.723 116.354L962.928 109.281C960.57 107.978 960.507 104.61 962.815 103.22L975.338 95.6755C977.646 94.2852 980.594 95.9146 980.644 98.6084Z" stroke="#6080FF" stroke-width="3"></path><path d="M1572.69 25.2081L1560.85 33.7845C1558.67 35.365 1555.6 33.9907 1555.32 31.3107L1553.81 16.7683C1553.53 14.0883 1556.26 12.1127 1558.72 13.2122L1572.07 19.1783C1574.53 20.2777 1574.87 23.6277 1572.69 25.2081Z" stroke="#6080FF" stroke-width="3"></path><rect x="1718" y="202" width="32" height="32" rx="13" transform="rotate(30 1718 202)" fill="#FF8345"></rect><circle cx="16" cy="386" r="16" fill="#FFCA45"></circle></svg>