<?xml version="1.0" standalone="no"?><svg xmlns="http://www.w3.org/2000/svg" viewBox="0 0 1440 320"><path fill="#f3f7f8" fill-opacity="1" d="M0,96L26.7,106.7C53.3,117,107,139,160,165.3C213.3,192,267,224,320,218.7C373.3,213,427,171,480,170.7C533.3,171,587,213,640,218.7C693.3,224,747,192,800,181.3C853.3,171,907,181,960,170.7C1013.3,160,1067,128,1120,138.7C1173.3,149,1227,203,1280,197.3C1333.3,192,1387,128,1413,96L1440,64L1440,320L1413.3,320C1386.7,320,1333,320,1280,320C1226.7,320,1173,320,1120,320C1066.7,320,1013,320,960,320C906.7,320,853,320,800,320C746.7,320,693,320,640,320C586.7,320,533,320,480,320C426.7,320,373,320,320,320C266.7,320,213,320,160,320C106.7,320,53,320,27,320L0,320Z"></path></svg>